{"title":"The Last Legion 2007 HDDVDRip H264 AAC-Rx(Phoenix-RG)","uid":5752671,"size":1775976052,"categoryP":"video","categoryS":"hd___movies","magnet":"?xt=urn:btih:d9b04c441fa2084ce65ea2cf4587bc8bc69c402c&amp;dn=The+Last+Legion+2007+HDDVDRip+H264+AAC-Rx%28Phoenix-RG%29&amp;tr=udp%3A%2F%2Ftracker.openbittorrent.com%3A80&amp;tr=udp%3A%2F%2Fopen.demonii.com%3A1337&amp;tr=udp%3A%2F%2Ftracker.coppersurfer.tk%3A6969&amp;tr=udp%3A%2F%2Fexodus.desync.com%3A6969","seeders":0,"leechers":0,"uploader":"rev-x","files":8,"time":1281457304,"description":"The Last Legion 2007 HDDVDRip H264 AAC-Rx(Phoenix-RG).mp4\n      Format : MPEG-4\n      Format profile : Base Media\n      Codec ID : isom\n      File size : 1.65 GiB\n      Duration : 1h 41mn\n      Overall bit rate : 2 325 Kbps\n      \n   Video #1\n      Format : AVC\n      Format/Info : Advanced Video Codec\n      Format profile : &lt;a class=&quot;__cf_email__&quot; href=&quot;/cdn-cgi/l/email-protection&quot; data-cfemail=&quot;efa7868887afa3dbc1de&quot;&gt;[email&amp;#160;protected]&lt;/a&gt;&lt;script data-cfhash='f9e31' type=&quot;text/javascript&quot;&gt;\n/* &lt;![CDATA[ */!function(){try{var t=&quot;currentScript&quot;in document?document.currentScript:function(){for(var t=document.getElementsByTagName(&quot;script&quot;),e=t.length;e--;)if(t[e].getAttribute(&quot;data-cfhash&quot;))return t[e]}();if(t&amp;&amp;t.previousSibling){var e,r,n,i,c=t.previousSibling,a=c.getAttribute(&quot;data-cfemail&quot;);if(a){for(e=&quot;&quot;,r=parseInt(a.substr(0,2),16),n=2;a.length-n;n+=2)i=parseInt(a.substr(n,2),16)^r,e+=String.fromCharCode(i);e=document.createTextNode(e),c.parentNode.replaceChild(e,c)}t.parentNode.removeChild(t);}}catch(u){}}()/* ]]&gt; */&lt;/script&gt;\n      Format settings, CABAC : Yes\n      Format settings, ReFrames : 8 frames\n      Codec ID : avc1\n      Codec ID/Info : Advanced Video Coding\n      Duration : 1h 41mn\n      Bit rate mode : Variable\n      Bit rate : 2 000 Kbps\n      Maximum bit rate : 9 801 Kbps\n      Width : 1 280 pixels\n      Height : 536 pixels\n      Display aspect ratio : 2.35\n      Frame rate mode : Constant\n      Frame rate : 23.976 fps\n      Resolution : 24 bits\n      Colorimetry : 4:2:0\n      Scan type : Progressive\n      Bits/(Pixel*Frame) : 0.122\n      Stream size : 1.42 GiB (86%)\n      Writing library : x264 core 98 r1649 c54c47d\n      \n   Audio #2\n      Format : AAC\n      Format/Info : Advanced Audio Codec\n      Format version : Version 4\n      Format profile : LC\n      Format settings, SBR : No\n      Codec ID : 40\n      Duration : 1h 41mn\n      Bit rate mode : Variable\n      Bit rate : 321 Kbps\n      Maximum bit rate : 444 Kbps\n      Channel(s) : 6 channels\n      Channel positions : Front: L C R, Rear: L R, LFE\n      Sampling rate : 48.0 KHz\n      Resolution : 16 bits\n      Stream size : 234 MiB (14%)\n\n\nSCREEN:\n &lt;a href=&quot;\nhttp://img806.imageshack.us/img806/2204/vlcsnap91900.jpg&quot; rel=&quot;nofollow&quot; target=&quot;_NEW&quot;&gt;\nhttp://img806.imageshack.us/img806/2204/vlcsnap91900.jpg&lt;/a&gt;\n &lt;a href=&quot;\nhttp://img265.imageshack.us/img265/8823/vlcsnap90066.jpg&quot; rel=&quot;nofollow&quot; target=&quot;_NEW&quot;&gt;\nhttp://img265.imageshack.us/img265/8823/vlcsnap90066.jpg&lt;/a&gt;\n &lt;a href=&quot;\nhttp://img265.imageshack.us/img265/4511/vlcsnap91202.jpg&quot; rel=&quot;nofollow&quot; target=&quot;_NEW&quot;&gt;\nhttp://img265.imageshack.us/img265/4511/vlcsnap91202.jpg&lt;/a&gt;","torrent":{"xt":"urn:btih:d9b04c441fa2084ce65ea2cf4587bc8bc69c402c","amp;dn":"The+Last+Legion+2007+HDDVDRip+H264+AAC-Rx%28Phoenix-RG%29","amp;tr":["udp%3A%2F%2Ftracker.openbittorrent.com%3A80","udp%3A%2F%2Fopen.demonii.com%3A1337","udp%3A%2F%2Ftracker.coppersurfer.tk%3A6969","udp%3A%2F%2Fexodus.desync.com%3A6969"],"infoHash":"d9b04c441fa2084ce65ea2cf4587bc8bc69c402c","infoHashBuffer":{"type":"Buffer","data":[217,176,76,68,31,162,8,76,230,94,162,207,69,135,188,139,198,156,64,44]},"announce":[],"urlList":[]}}